<svg id="search-24px" xmlns="http://www.w3.org/2000/svg" width="1080" height="1080" viewBox="0 0 1080 1080">
  <path id="Контур_7" data-name="Контур 7" d="M0,0H1080V1080H0Z" fill="none"/>
  <path id="Контур_8" data-name="Контур 8" d="M697.5,630H661.95l-12.6-12.15A291.206,291.206,0,0,0,720,427.5C720,265.95,589.05,135,427.5,135S135,265.95,135,427.5,265.95,720,427.5,720a291.206,291.206,0,0,0,190.35-70.65L630,661.95V697.5L855,922.05,922.05,855Zm-270,0A202.5,202.5,0,1,1,630,427.5,202.229,202.229,0,0,1,427.5,630Z" fill="#fff"/>
</svg>
